<svg width="209" height="106" viewBox="0 0 209 106" fill="none" xmlns="http://www.w3.org/2000/svg">
<g filter="url(#filter0_b_47_57)">
<path d="M52.791 67.536C50.551 67.536 49.431 66.784 49.431 65.28C49.431 64.608 49.623 64.064 50.007 63.648C50.455 63.168 50.967 62.928 51.543 62.928C51.959 62.928 52.167 63.04 52.167 63.264C52.167 63.456 52.119 63.552 52.023 63.552C51.991 63.552 51.879 63.52 51.687 63.456C51.591 63.424 51.479 63.408 51.351 63.408C50.999 63.408 50.695 63.584 50.439 63.936C50.183 64.224 50.055 64.576 50.055 64.992C50.055 65.632 50.407 66.144 51.111 66.528C51.751 66.816 52.407 66.96 53.079 66.96C55.543 66.96 57.799 65.984 59.847 64.032C60.647 63.296 61.431 62.384 62.199 61.296C62.999 60.208 63.783 58.944 64.551 57.504C64.551 57.472 64.823 56.88 65.367 55.728C65.943 54.576 66.775 52.88 67.863 50.64C70.551 45.136 73.591 41.2 76.983 38.832C75.031 38.096 72.599 37.728 69.687 37.728C68.023 37.728 66.455 37.872 64.983 38.16C63.511 38.416 62.119 38.816 60.807 39.36C57.703 40.608 55.399 42.48 53.895 44.976C52.967 46.544 52.503 48.096 52.503 49.632C52.503 51.264 53.015 52.624 54.039 53.712C55.063 54.832 56.391 55.392 58.023 55.392C59.847 55.392 61.463 54.736 62.871 53.424C64.279 52.08 64.983 50.512 64.983 48.72C64.983 47.472 64.647 46.448 63.975 45.648C63.271 44.816 62.295 44.4 61.047 44.4C60.119 44.4 59.287 44.688 58.551 45.264C57.815 45.904 57.447 46.704 57.447 47.664C57.447 48.432 57.863 48.816 58.695 48.816C58.759 48.816 58.807 48.768 58.839 48.672C58.935 48.576 59.015 48.528 59.079 48.528C59.143 48.56 59.175 48.608 59.175 48.672C59.175 48.992 58.999 49.152 58.647 49.152C57.559 49.152 57.015 48.64 57.015 47.616C57.015 46.592 57.479 45.696 58.407 44.928C59.303 44.192 60.263 43.824 61.287 43.824C62.663 43.824 63.783 44.272 64.647 45.168C65.543 46.064 65.991 47.2 65.991 48.576C65.991 50.688 65.159 52.464 63.495 53.904C61.927 55.248 60.071 55.92 57.927 55.92C55.911 55.92 54.263 55.328 52.983 54.144C51.607 52.864 50.919 51.28 50.919 49.392C50.919 48.048 51.255 46.736 51.927 45.456C53.399 42.544 55.991 40.368 59.703 38.928C62.743 37.744 66.199 37.152 70.071 37.152C72.951 37.152 75.543 37.52 77.847 38.256C80.023 36.976 81.991 36.336 83.751 36.336C84.007 36.336 84.135 36.368 84.135 36.432C84.135 36.528 84.087 36.576 83.991 36.576C83.863 36.576 83.671 36.592 83.415 36.624C83.191 36.624 82.935 36.64 82.647 36.672C81.175 36.864 79.783 37.472 78.471 38.496C81.895 39.808 83.607 41.712 83.607 44.208C83.607 46.544 82.407 48.48 80.007 50.016C78.087 51.232 75.799 51.984 73.143 52.272C73.495 53.232 73.767 54.512 73.959 56.112C74.055 56.976 74.135 57.84 74.199 58.704C74.263 59.568 74.359 60.432 74.487 61.296C74.839 63.824 75.463 65.248 76.359 65.568C76.775 65.728 77.159 65.808 77.511 65.808C78.919 65.808 80.439 64.864 82.071 62.976C83.479 61.28 84.391 59.648 84.807 58.08L84.903 58.032L85.143 58.128V58.224C84.535 60.048 83.463 61.856 81.927 63.648C80.103 65.696 78.359 66.72 76.695 66.72C75.991 66.72 75.335 66.496 74.727 66.048C73.607 65.312 72.855 64.032 72.471 62.208C72.375 61.664 72.295 60.976 72.231 60.144C72.167 59.312 72.119 58.304 72.087 57.12C72.087 54.912 71.959 53.344 71.703 52.416H70.743C70.519 52.416 70.295 52.416 70.071 52.416C69.879 52.384 69.703 52.352 69.543 52.32C67.815 56.48 66.119 59.584 64.455 61.632C62.055 64.512 59.111 66.352 55.623 67.152C54.535 67.408 53.591 67.536 52.791 67.536ZM72.903 51.696C75.111 51.312 77.031 50.544 78.663 49.392C80.583 47.952 81.543 46.208 81.543 44.16C81.543 41.952 80.263 40.272 77.703 39.12C76.487 40.176 75.287 41.584 74.103 43.344C72.951 45.104 71.815 47.216 70.695 49.68C71.687 50.064 72.423 50.736 72.903 51.696ZM70.791 51.84H71.127L71.559 51.792C71.271 51.056 70.903 50.544 70.455 50.256C70.359 50.416 70.263 50.624 70.167 50.88C70.071 51.136 69.943 51.44 69.783 51.792C69.943 51.792 70.103 51.808 70.263 51.84C70.455 51.84 70.631 51.84 70.791 51.84Z" fill="#CC3636"/>
<path d="M88.6605 66.432C87.2525 66.432 86.1805 65.824 85.4445 64.608C84.7725 63.584 84.4365 62.336 84.4365 60.864C84.4365 58.336 85.2365 55.984 86.8365 53.808C88.5965 51.44 90.7085 50.256 93.1725 50.256C94.4205 50.256 95.3805 50.688 96.0525 51.552C96.6925 52.384 97.0125 53.44 97.0125 54.72C97.0125 55.296 96.9485 55.888 96.8205 56.496C96.7245 57.104 96.5645 57.744 96.3405 58.416C95.8605 59.824 95.2685 60.928 94.5645 61.728L94.6605 61.872C94.9805 62.096 95.3645 62.208 95.8125 62.208C96.7405 62.208 97.5245 61.904 98.1645 61.296C98.8045 60.688 99.5245 59.6 100.324 58.032C100.356 57.904 100.42 57.84 100.516 57.84C100.58 57.84 100.628 57.888 100.66 57.984C100.692 58.048 100.676 58.144 100.612 58.272C99.9405 59.68 99.2205 60.752 98.4525 61.488C97.7165 62.224 96.8525 62.592 95.8605 62.592C95.2205 62.592 94.7245 62.416 94.3725 62.064C94.0525 62.64 93.7005 63.184 93.3165 63.696C92.9325 64.176 92.5005 64.608 92.0205 64.992C90.9325 65.952 89.8125 66.432 88.6605 66.432ZM88.9965 66.048C90.6925 66.048 92.3565 64.752 93.9885 62.16C93.9885 62.064 94.0365 61.968 94.1325 61.872C93.5565 60.912 93.2685 60 93.2685 59.136C93.2685 59.104 93.2685 59.04 93.2685 58.944C93.2685 58.816 93.2845 58.656 93.3165 58.464C93.3485 58.112 93.4125 57.76 93.5085 57.408C93.6045 57.024 93.7645 56.672 93.9885 56.352C94.4685 55.584 95.0445 55.2 95.7165 55.2H96.1485C96.2765 55.232 96.3725 55.248 96.4365 55.248C96.5005 55.248 96.5485 55.248 96.5805 55.248C96.5805 52.368 95.6685 50.928 93.8445 50.928C92.3085 50.928 90.8525 51.856 89.4765 53.712C88.3565 55.184 87.5565 56.832 87.0765 58.656C86.7885 59.648 86.6445 60.688 86.6445 61.776C86.6445 64.624 87.4285 66.048 88.9965 66.048ZM98.2241 76.848C96.2721 76.848 95.2961 76.128 95.2961 74.688C95.2961 72.864 96.9601 70.912 100.288 68.832C100.992 68.384 101.968 67.84 103.216 67.2C104.496 66.56 106.048 65.84 107.872 65.04V64.56C107.872 62.8 106.864 61.92 104.848 61.92C103.92 61.92 103.04 62.128 102.208 62.544C101.792 62.704 101.456 62.784 101.2 62.784C100.656 62.784 100.384 62.592 100.384 62.208C100.384 61.696 100.928 61.392 102.016 61.296L104.224 61.152C105.92 60.864 107.296 59.872 108.352 58.176C109.312 56.64 109.792 54.96 109.792 53.136C109.792 51.248 109.024 50.304 107.488 50.304C105.472 50.304 103.2 52.96 100.672 58.272H100.576L100.384 58.224V58.128C100.704 57.36 101.04 56.624 101.392 55.92C101.744 55.216 102.128 54.528 102.544 53.856C104.144 51.2 105.92 49.872 107.872 49.872C110.432 49.872 111.712 51.328 111.712 54.24C111.712 57.536 109.328 59.952 104.56 61.488C104.912 61.424 105.2 61.392 105.424 61.392C105.648 61.392 105.824 61.392 105.952 61.392C106.496 61.392 106.992 61.504 107.44 61.728C107.856 61.92 108.256 62.304 108.64 62.88C109.024 63.488 109.216 64.016 109.216 64.464C109.76 64.272 110.352 63.952 110.992 63.504C111.632 63.056 112.24 62.56 112.816 62.016C113.424 61.472 113.888 60.976 114.208 60.528C114.848 59.632 115.408 58.672 115.888 57.648C115.984 57.488 116.064 57.408 116.128 57.408C116.288 57.408 116.32 57.536 116.224 57.792C116 58.304 115.744 58.8 115.456 59.28C115.2 59.76 114.896 60.24 114.544 60.72C113.968 61.584 113.2 62.4 112.24 63.168C111.28 63.904 110.288 64.448 109.264 64.8C109.296 68.832 107.408 72.208 103.6 74.928C101.744 76.208 99.9521 76.848 98.2241 76.848ZM97.3601 76.224C98.9281 76.224 100.736 75.248 102.784 73.296C104.512 71.6 105.824 69.888 106.72 68.16C107.36 67.008 107.696 66.096 107.728 65.424C107.088 65.648 106.464 65.904 105.856 66.192C105.248 66.48 104.672 66.784 104.128 67.104C102.56 68 101.328 68.688 100.432 69.168C99.5681 69.68 99.0561 70 98.8961 70.128C96.7521 71.664 95.6801 73.168 95.6801 74.64C95.6801 75.696 96.2401 76.224 97.3601 76.224ZM126.751 66.144C125.087 66.144 124.255 64.992 124.255 62.688C124.255 61.792 124.399 60.768 124.687 59.616C122.447 63.936 120.223 66.096 118.015 66.096C116.959 66.096 116.159 65.568 115.615 64.512C115.167 63.712 114.943 62.704 114.943 61.488C114.943 60.496 115.087 59.456 115.375 58.368C115.919 56.48 117.071 54.704 118.831 53.04C120.783 51.248 122.639 50.352 124.399 50.352C125.999 50.352 126.799 51.312 126.799 53.232C126.799 54.064 126.623 55.04 126.271 56.16L129.199 50.4H129.343C129.439 50.56 129.647 50.64 129.967 50.64C130.607 50.64 131.423 50.256 132.415 49.488L132.511 49.584L128.431 57.552C126.799 60.72 125.983 63.12 125.983 64.752C125.983 65.392 126.271 65.712 126.847 65.712C127.231 65.712 127.695 65.568 128.239 65.28C128.783 64.992 129.359 64.512 129.967 63.84C130.735 62.944 131.391 62.096 131.935 61.296C132.511 60.464 133.167 59.344 133.903 57.936C133.999 57.776 134.095 57.696 134.191 57.696C134.383 57.696 134.383 57.856 134.191 58.176C133.615 59.264 132.991 60.352 132.319 61.44C131.679 62.496 130.895 63.488 129.967 64.416C128.815 65.568 127.743 66.144 126.751 66.144ZM118.207 65.76C119.999 65.76 122.303 63.232 125.119 58.176C126.015 56.576 126.463 54.96 126.463 53.328C126.463 51.6 125.903 50.736 124.783 50.736C123.567 50.736 122.191 51.744 120.655 53.76C120.047 54.592 119.519 55.408 119.071 56.208C118.655 57.008 118.319 57.776 118.063 58.512C117.391 60.432 117.055 62.16 117.055 63.696C117.055 65.072 117.439 65.76 118.207 65.76ZM138.508 66.192C136.588 66.192 135.628 65.344 135.628 63.648C135.628 62.304 136.156 60.768 137.212 59.04C137.564 58.432 138.54 57.072 140.14 54.96C141.196 53.552 141.724 52.56 141.724 51.984C141.724 51.44 141.276 51.168 140.38 51.168C139.772 51.168 139.1 51.184 138.364 51.216C137.66 51.248 137.084 51.28 136.636 51.312C136.54 51.824 136.396 52.416 136.204 53.088C136.012 53.76 135.788 54.464 135.532 55.2C135.372 55.648 135.116 56.256 134.764 57.024C134.444 57.792 134.012 58.608 133.468 59.472C133.372 59.6 133.292 59.664 133.228 59.664C133.196 59.664 133.18 59.632 133.18 59.568C133.18 59.408 133.244 59.2 133.372 58.944C133.628 58.496 133.916 57.952 134.236 57.312C134.556 56.64 134.86 55.904 135.148 55.104C135.404 54.4 135.628 53.664 135.82 52.896C136.044 52.096 136.172 51.552 136.204 51.264C135.436 50.784 135.052 50.064 135.052 49.104C135.052 48.016 135.436 47.472 136.204 47.472C136.748 47.472 137.02 47.968 137.02 48.96C137.02 49.184 136.988 49.456 136.924 49.776C136.86 50.096 136.78 50.48 136.684 50.928C137.132 50.896 137.836 50.864 138.796 50.832C139.788 50.768 140.732 50.736 141.628 50.736C143.26 50.736 144.076 51.232 144.076 52.224C144.076 53.28 142.812 55.456 140.284 58.752C139.74 59.552 139.132 60.464 138.46 61.488C137.82 62.48 137.5 63.504 137.5 64.56C137.5 64.848 137.564 65.12 137.692 65.376C137.82 65.632 138.092 65.76 138.508 65.76C139.884 65.76 141.404 64.928 143.068 63.264C143.9 62.432 144.668 61.536 145.372 60.576C146.076 59.616 146.716 58.544 147.292 57.36C147.42 57.104 147.532 56.976 147.628 56.976C147.692 56.976 147.724 57.024 147.724 57.12C147.724 57.28 147.676 57.456 147.58 57.648C147.036 58.768 146.38 59.856 145.612 60.912C144.844 61.936 143.996 62.912 143.068 63.84C141.5 65.408 139.98 66.192 138.508 66.192ZM154.465 47.76C153.441 47.76 152.929 47.264 152.929 46.272C152.929 45.184 153.425 44.64 154.417 44.64C155.441 44.64 155.953 45.136 155.953 46.128C155.953 47.216 155.457 47.76 154.465 47.76ZM148.801 66.48C146.689 66.48 145.633 65.312 145.633 62.976C145.633 61.28 146.129 59.488 147.121 57.6L150.721 50.544H150.865C150.961 50.672 151.153 50.736 151.441 50.736C152.049 50.736 152.849 50.368 153.841 49.632L153.937 49.728L149.857 57.648C148.161 60.912 147.313 63.184 147.313 64.464C147.313 65.04 147.473 65.44 147.793 65.664C148.113 65.888 148.481 66 148.897 66C149.345 66 149.777 65.904 150.193 65.712C150.641 65.52 151.025 65.312 151.345 65.088C152.209 64.416 152.929 63.648 153.505 62.784C154.113 61.888 154.641 60.992 155.089 60.096C155.537 59.2 155.937 58.448 156.289 57.84C156.385 57.68 156.481 57.632 156.577 57.696C156.673 57.728 156.689 57.824 156.625 57.984C155.985 59.328 155.281 60.704 154.513 62.112C153.745 63.52 152.769 64.64 151.585 65.472C151.169 65.76 150.721 66 150.241 66.192C149.793 66.384 149.313 66.48 148.801 66.48ZM160.051 66.432C158.643 66.432 157.571 65.824 156.835 64.608C156.163 63.584 155.827 62.336 155.827 60.864C155.827 58.336 156.627 55.984 158.227 53.808C159.987 51.44 162.099 50.256 164.563 50.256C165.811 50.256 166.771 50.688 167.443 51.552C168.083 52.384 168.403 53.44 168.403 54.72C168.403 55.296 168.339 55.888 168.211 56.496C168.115 57.104 167.955 57.744 167.731 58.416C167.251 59.824 166.659 60.928 165.955 61.728L166.051 61.872C166.371 62.096 166.755 62.208 167.203 62.208C168.131 62.208 168.915 61.904 169.555 61.296C170.195 60.688 170.915 59.6 171.715 58.032C171.747 57.904 171.811 57.84 171.907 57.84C171.971 57.84 172.019 57.888 172.051 57.984C172.083 58.048 172.067 58.144 172.003 58.272C171.331 59.68 170.611 60.752 169.843 61.488C169.107 62.224 168.243 62.592 167.251 62.592C166.611 62.592 166.115 62.416 165.763 62.064C165.443 62.64 165.091 63.184 164.707 63.696C164.323 64.176 163.891 64.608 163.411 64.992C162.323 65.952 161.203 66.432 160.051 66.432ZM160.387 66.048C162.083 66.048 163.747 64.752 165.379 62.16C165.379 62.064 165.427 61.968 165.523 61.872C164.947 60.912 164.659 60 164.659 59.136C164.659 59.104 164.659 59.04 164.659 58.944C164.659 58.816 164.675 58.656 164.707 58.464C164.739 58.112 164.803 57.76 164.899 57.408C164.995 57.024 165.155 56.672 165.379 56.352C165.859 55.584 166.435 55.2 167.107 55.2H167.539C167.667 55.232 167.763 55.248 167.827 55.248C167.891 55.248 167.939 55.248 167.971 55.248C167.971 52.368 167.059 50.928 165.235 50.928C163.699 50.928 162.243 51.856 160.867 53.712C159.747 55.184 158.947 56.832 158.467 58.656C158.179 59.648 158.035 60.688 158.035 61.776C158.035 64.624 158.819 66.048 160.387 66.048Z" fill="white"/>
</g>
<path d="M8.57964 91.96C8.32364 91.848 8.24631 91.6613 8.34764 91.4L12.3156 82.016C12.401 81.7973 12.5583 81.688 12.7876 81.688H12.8356C13.0543 81.6933 13.209 81.8027 13.2996 82.016L17.2676 91.4C17.3743 91.6613 17.2996 91.848 17.0436 91.96C16.7823 92.0667 16.601 91.992 16.4996 91.736L15.4356 89.216H10.1956L9.13164 91.736C9.02497 91.992 8.84097 92.0667 8.57964 91.96ZM10.5396 88.376H15.0836L12.8116 83.016L10.5396 88.376ZM25.4233 92C24.6659 92 24.1086 91.824 23.7513 91.472C23.3993 91.12 23.2233 90.568 23.2233 89.816V81.32C23.2233 81.0427 23.3646 80.904 23.6473 80.904C23.9246 80.904 24.0633 81.0427 24.0633 81.32V89.816C24.0633 90.3333 24.1593 90.688 24.3513 90.88C24.5433 91.0667 24.8979 91.16 25.4153 91.16C25.7033 91.16 25.8473 91.2987 25.8473 91.576C25.8526 91.8587 25.7113 92 25.4233 92ZM33.8555 92C33.6048 92 33.4422 91.8853 33.3675 91.656L31.1115 85.008C31.0208 84.736 31.1088 84.5573 31.3755 84.472C31.6368 84.392 31.8102 84.48 31.8955 84.736L34.0875 91.16H33.7515L35.8475 84.856C35.9222 84.632 36.0822 84.52 36.3275 84.52C36.5622 84.52 36.7142 84.6347 36.7835 84.864L38.7435 91.144H38.3915L40.6955 84.736C40.8022 84.464 40.9835 84.376 41.2395 84.472C41.5062 84.5733 41.5915 84.7547 41.4955 85.016L39.0235 91.656C38.9382 91.8853 38.7728 92 38.5275 92C38.2555 92 38.0848 91.8853 38.0155 91.656L36.1995 85.84H36.3595L34.3595 91.656C34.3168 91.7893 34.2502 91.88 34.1595 91.928C34.0688 91.976 33.9675 92 33.8555 92ZM49.8144 92C48.9824 92 48.3717 91.808 47.9824 91.424C47.5984 91.0347 47.4064 90.424 47.4064 89.592C47.4064 88.76 47.6011 88.1493 47.9904 87.76C48.3797 87.3707 48.9877 87.176 49.8144 87.176H53.4544C53.4437 86.472 53.2837 85.9813 52.9744 85.704C52.6704 85.4213 52.1504 85.28 51.4144 85.28H50.4864C49.8091 85.28 49.3131 85.352 48.9984 85.496C48.6837 85.64 48.4891 85.8853 48.4144 86.232C48.3771 86.3653 48.3264 86.464 48.2624 86.528C48.2037 86.5867 48.1077 86.616 47.9744 86.616C47.8357 86.616 47.7264 86.5787 47.6464 86.504C47.5717 86.424 47.5451 86.3173 47.5664 86.184C47.6357 85.576 47.9104 85.1333 48.3904 84.856C48.8757 84.5787 49.5744 84.44 50.4864 84.44H51.4144C52.4117 84.44 53.1397 84.672 53.5984 85.136C54.0624 85.5947 54.2944 86.3227 54.2944 87.32V91.576C54.2944 91.8587 54.1557 92 53.8784 92C53.5957 92 53.4544 91.8587 53.4544 91.576V90.784C52.9424 91.5947 52.0277 92 50.7104 92H49.8144ZM49.8144 91.16H50.7104C51.2277 91.16 51.6811 91.104 52.0704 90.992C52.4651 90.8747 52.7824 90.688 53.0224 90.432C53.2624 90.176 53.4064 89.8347 53.4544 89.408V88.016H49.8144C49.2224 88.016 48.8117 88.1307 48.5824 88.36C48.3584 88.584 48.2464 88.9947 48.2464 89.592C48.2464 90.184 48.3584 90.5947 48.5824 90.824C48.8117 91.048 49.2224 91.16 49.8144 91.16ZM63.3685 95.2C62.6698 95.2 62.1525 95.032 61.8165 94.696C61.4858 94.36 61.3205 93.8373 61.3205 93.128C61.3205 92.8507 61.4592 92.712 61.7365 92.712C62.0192 92.712 62.1605 92.8507 62.1605 93.128C62.1605 93.608 62.2458 93.9333 62.4165 94.104C62.5872 94.2747 62.9045 94.36 63.3685 94.36H66.1365C66.6058 94.36 66.9258 94.2747 67.0965 94.104C67.2672 93.9333 67.3525 93.608 67.3525 93.128V90.928C67.0485 91.328 66.6672 91.608 66.2085 91.768C65.7498 91.928 65.2138 92.008 64.6005 92.008H64.1525C63.1712 92.008 62.4538 91.7813 62.0005 91.328C61.5472 90.8747 61.3205 90.1627 61.3205 89.192V84.848C61.3205 84.5653 61.4592 84.424 61.7365 84.424C62.0192 84.424 62.1605 84.5653 62.1605 84.848V89.192C62.1605 89.9333 62.3045 90.448 62.5925 90.736C62.8858 91.024 63.4058 91.168 64.1525 91.168H64.6005C65.5338 91.168 66.2245 91.0053 66.6725 90.68C67.1258 90.3493 67.3525 89.8533 67.3525 89.192V84.848C67.3525 84.5653 67.4912 84.424 67.7685 84.424C68.0512 84.424 68.1925 84.5653 68.1925 84.848V93.128C68.1925 93.8373 68.0245 94.36 67.6885 94.696C67.3578 95.032 66.8405 95.2 66.1365 95.2H63.3685ZM77.1593 91.984C76.5033 91.984 76.0019 91.8453 75.6553 91.568C75.3086 91.2853 75.1006 90.856 75.0313 90.28C75.0153 90.1413 75.0446 90.0347 75.1193 89.96C75.1939 89.88 75.3033 89.84 75.4473 89.84C75.5806 89.84 75.6793 89.8747 75.7433 89.944C75.8126 90.0133 75.8579 90.1173 75.8793 90.256C75.9273 90.5867 76.0473 90.8187 76.2393 90.952C76.4366 91.08 76.7433 91.144 77.1593 91.144H79.7833C80.2793 91.144 80.6206 91.0507 80.8073 90.864C80.9939 90.6773 81.0873 90.336 81.0873 89.84C81.0873 89.3387 80.9939 88.9947 80.8073 88.808C80.6206 88.6213 80.2793 88.528 79.7833 88.528H77.1913C76.4979 88.528 75.9806 88.3627 75.6393 88.032C75.3033 87.696 75.1353 87.1813 75.1353 86.488C75.1353 85.7787 75.3033 85.2587 75.6393 84.928C75.9753 84.592 76.4926 84.424 77.1913 84.424H79.7033C80.9086 84.424 81.5779 84.9573 81.7113 86.024C81.7326 86.1627 81.7033 86.272 81.6233 86.352C81.5486 86.4267 81.4419 86.464 81.3033 86.464C81.1699 86.464 81.0686 86.4293 80.9993 86.36C80.9353 86.2907 80.8899 86.1893 80.8633 86.056C80.8259 85.7573 80.7166 85.552 80.5353 85.44C80.3593 85.3227 80.0819 85.264 79.7033 85.264H77.1913C76.7273 85.264 76.4073 85.3493 76.2313 85.52C76.0606 85.6907 75.9753 86.0133 75.9753 86.488C75.9753 86.9413 76.0633 87.256 76.2393 87.432C76.4153 87.6027 76.7326 87.688 77.1913 87.688H79.7833C80.5193 87.688 81.0606 87.864 81.4073 88.216C81.7539 88.5627 81.9273 89.104 81.9273 89.84C81.9273 90.5707 81.7539 91.112 81.4073 91.464C81.0606 91.8107 80.5193 91.984 79.7833 91.984H77.1593ZM97.5204 92C97.2377 92 97.0964 91.8587 97.0964 91.576V82.112C97.0964 81.8293 97.2377 81.688 97.5204 81.688H101.376C102.704 81.688 103.67 81.992 104.272 82.6C104.88 83.208 105.184 84.176 105.184 85.504V88.184C105.184 89.512 104.88 90.48 104.272 91.088C103.67 91.696 102.704 92 101.376 92H97.5204ZM97.9364 91.16H101.376C102.102 91.16 102.68 91.064 103.112 90.872C103.55 90.68 103.864 90.368 104.056 89.936C104.248 89.4987 104.344 88.9147 104.344 88.184V85.504C104.344 84.7787 104.248 84.2 104.056 83.768C103.864 83.3307 103.55 83.016 103.112 82.824C102.68 82.6267 102.102 82.528 101.376 82.528H97.9364V91.16ZM112.9 88.544V89.128C112.9 89.88 113.049 90.408 113.348 90.712C113.652 91.0107 114.185 91.16 114.948 91.16H116.26C116.932 91.16 117.42 91.0747 117.724 90.904C118.033 90.728 118.217 90.4267 118.276 90C118.297 89.8667 118.34 89.7653 118.404 89.696C118.473 89.6267 118.577 89.592 118.716 89.592C118.854 89.592 118.958 89.632 119.028 89.712C119.102 89.7867 119.132 89.8933 119.116 90.032C119.046 90.704 118.777 91.2 118.308 91.52C117.838 91.84 117.156 92 116.26 92H114.948C113.95 92 113.22 91.7707 112.756 91.312C112.292 90.848 112.06 90.12 112.06 89.128V87.32C112.06 86.312 112.292 85.5787 112.756 85.12C113.22 84.656 113.95 84.4293 114.948 84.44H116.26C117.257 84.44 117.985 84.672 118.444 85.136C118.908 85.5947 119.14 86.3227 119.14 87.32V88.12C119.14 88.4027 119.001 88.544 118.724 88.544H112.9ZM114.948 85.28C114.185 85.2693 113.652 85.416 113.348 85.72C113.049 86.0187 112.9 86.552 112.9 87.32V87.704H118.3V87.32C118.3 86.5573 118.15 86.0267 117.852 85.728C117.553 85.4293 117.022 85.28 116.26 85.28H114.948ZM128.436 92C127.679 92 127.122 91.824 126.764 91.472C126.412 91.12 126.236 90.568 126.236 89.816V81.32C126.236 81.0427 126.378 80.904 126.66 80.904C126.938 80.904 127.076 81.0427 127.076 81.32V89.816C127.076 90.3333 127.172 90.688 127.364 90.88C127.556 91.0667 127.911 91.16 128.428 91.16C128.716 91.16 128.86 91.2987 128.86 91.576C128.866 91.8587 128.724 92 128.436 92ZM135.453 82.984C135.085 82.984 134.901 82.7947 134.901 82.416V82.056C134.901 81.688 135.085 81.504 135.453 81.504H135.813C136.17 81.504 136.349 81.688 136.349 82.056V82.416C136.349 82.7947 136.17 82.984 135.813 82.984H135.453ZM135.637 92C135.354 92 135.213 91.8587 135.213 91.576V84.856C135.213 84.5787 135.354 84.44 135.637 84.44C135.914 84.44 136.053 84.5787 136.053 84.856V91.576C136.053 91.8587 135.914 92 135.637 92ZM146.033 92C145.035 92 144.305 91.768 143.841 91.304C143.377 90.84 143.145 90.1093 143.145 89.112V87.304C143.145 86.3067 143.374 85.5787 143.833 85.12C144.297 84.656 145.03 84.4293 146.033 84.44H147.345C148.129 84.44 148.726 84.5733 149.137 84.84C149.553 85.1013 149.801 85.5147 149.881 86.08C149.897 86.224 149.865 86.3333 149.785 86.408C149.71 86.4827 149.603 86.52 149.465 86.52C149.337 86.52 149.241 86.488 149.177 86.424C149.113 86.3547 149.065 86.256 149.033 86.128C148.974 85.8187 148.817 85.6 148.561 85.472C148.305 85.344 147.899 85.28 147.345 85.28H146.033C145.27 85.2693 144.737 85.4133 144.433 85.712C144.134 86.0053 143.985 86.536 143.985 87.304V89.112C143.985 89.8747 144.134 90.408 144.433 90.712C144.737 91.0107 145.27 91.16 146.033 91.16H147.345C147.899 91.16 148.305 91.096 148.561 90.968C148.817 90.84 148.974 90.6187 149.033 90.304C149.065 90.176 149.113 90.08 149.177 90.016C149.241 89.9467 149.337 89.912 149.465 89.912C149.603 89.912 149.71 89.952 149.785 90.032C149.865 90.1067 149.897 90.2133 149.881 90.352C149.801 90.9173 149.553 91.3333 149.137 91.6C148.726 91.8667 148.129 92 147.345 92H146.033ZM157.061 82.984C156.693 82.984 156.509 82.7947 156.509 82.416V82.056C156.509 81.688 156.693 81.504 157.061 81.504H157.421C157.779 81.504 157.957 81.688 157.957 82.056V82.416C157.957 82.7947 157.779 82.984 157.421 82.984H157.061ZM157.245 92C156.963 92 156.821 91.8587 156.821 91.576V84.856C156.821 84.5787 156.963 84.44 157.245 84.44C157.523 84.44 157.661 84.5787 157.661 84.856V91.576C157.661 91.8587 157.523 92 157.245 92ZM167.642 92C166.644 92 165.914 91.7707 165.45 91.312C164.986 90.848 164.754 90.12 164.754 89.128V87.32C164.754 86.312 164.986 85.5787 165.45 85.12C165.914 84.656 166.644 84.4293 167.642 84.44H168.954C169.951 84.44 170.679 84.672 171.138 85.136C171.602 85.5947 171.834 86.3227 171.834 87.32V89.112C171.834 90.1093 171.602 90.84 171.138 91.304C170.679 91.768 169.951 92 168.954 92H167.642ZM165.594 89.128C165.594 89.88 165.743 90.408 166.042 90.712C166.346 91.0107 166.879 91.16 167.642 91.16H168.954C169.716 91.16 170.247 91.0107 170.546 90.712C170.844 90.408 170.994 89.8747 170.994 89.112V87.32C170.994 86.5573 170.844 86.0267 170.546 85.728C170.247 85.4293 169.716 85.28 168.954 85.28H167.642C167.13 85.2747 166.724 85.336 166.426 85.464C166.127 85.592 165.914 85.8053 165.786 86.104C165.658 86.4027 165.594 86.808 165.594 87.32V89.128ZM185.282 84.44C185.565 84.44 185.706 84.5787 185.706 84.856V91.576C185.706 91.8587 185.565 92 185.282 92C185.005 92 184.866 91.8587 184.866 91.576V90.816C184.359 91.6053 183.442 92 182.114 92H181.666C180.669 92 179.938 91.768 179.474 91.304C179.015 90.84 178.786 90.1093 178.786 89.112V84.856C178.786 84.5787 178.925 84.44 179.202 84.44C179.485 84.44 179.626 84.5787 179.626 84.856V89.112C179.626 89.8747 179.775 90.408 180.074 90.712C180.378 91.0107 180.909 91.16 181.666 91.16H182.114C182.941 91.16 183.591 91.0267 184.066 90.76C184.541 90.4933 184.807 90.0853 184.866 89.536V84.856C184.866 84.5787 185.005 84.44 185.282 84.44ZM194.672 91.984C194.016 91.984 193.514 91.8453 193.168 91.568C192.821 91.2853 192.613 90.856 192.544 90.28C192.528 90.1413 192.557 90.0347 192.632 89.96C192.706 89.88 192.816 89.84 192.96 89.84C193.093 89.84 193.192 89.8747 193.256 89.944C193.325 90.0133 193.37 90.1173 193.392 90.256C193.44 90.5867 193.56 90.8187 193.752 90.952C193.949 91.08 194.256 91.144 194.672 91.144H197.296C197.792 91.144 198.133 91.0507 198.32 90.864C198.506 90.6773 198.6 90.336 198.6 89.84C198.6 89.3387 198.506 88.9947 198.32 88.808C198.133 88.6213 197.792 88.528 197.296 88.528H194.704C194.01 88.528 193.493 88.3627 193.152 88.032C192.816 87.696 192.648 87.1813 192.648 86.488C192.648 85.7787 192.816 85.2587 193.152 84.928C193.488 84.592 194.005 84.424 194.704 84.424H197.216C198.421 84.424 199.09 84.9573 199.224 86.024C199.245 86.1627 199.216 86.272 199.136 86.352C199.061 86.4267 198.954 86.464 198.816 86.464C198.682 86.464 198.581 86.4293 198.512 86.36C198.448 86.2907 198.402 86.1893 198.376 86.056C198.338 85.7573 198.229 85.552 198.048 85.44C197.872 85.3227 197.594 85.264 197.216 85.264H194.704C194.24 85.264 193.92 85.3493 193.744 85.52C193.573 85.6907 193.488 86.0133 193.488 86.488C193.488 86.9413 193.576 87.256 193.752 87.432C193.928 87.6027 194.245 87.688 194.704 87.688H197.296C198.032 87.688 198.573 87.864 198.92 88.216C199.266 88.5627 199.44 89.104 199.44 89.84C199.44 90.5707 199.266 91.112 198.92 91.464C198.573 91.8107 198.032 91.984 197.296 91.984H194.672Z" fill="white"/>
<path d="M105.345 7.0004C102.887 7.01279 101.298 7.34848 100.204 7.86526C98.9522 8.45589 98.2497 9.32151 97.6883 10.4425C97.9263 11.7591 99.9119 13.4736 99.5141 14.8694C97.9834 13.0948 96.4058 10.593 93.6339 10.0817C92.0479 9.79111 90.24 9.71677 89.5899 9.99138C88.8215 10.3159 88.3072 10.9198 88.0162 11.6805C87.7253 12.4413 87.6763 13.3308 87.7664 14.0886C87.9922 15.984 90.0683 18.8058 92.1243 21.0763C93.6642 22.7767 95.1689 24.1845 95.8274 24.7844C96.5267 24.6452 97.2349 24.5273 97.9497 24.4309C97.8069 23.2974 98.0783 22.25 98.0266 21.0376C98.4173 22.1818 98.7548 23.2125 99.3525 24.2682C100.503 24.1567 101.713 24.092 102.961 24.0908C103.837 24.0894 104.714 24.1202 105.585 24.1828L106.906 21.5686L106.686 24.2797C108.276 24.446 109.882 24.73 111.458 25.1589C112.592 24.3565 113.025 23.4354 113.779 22.5684C113.816 23.5749 113.36 24.5746 112.381 25.428C113.208 25.6859 114.023 25.9859 114.821 26.3325C118.676 22.1088 121.015 17.9361 120.568 13.8344C120.429 12.5557 120.003 11.4325 119.39 10.6199C118.777 9.80728 118.013 9.33402 117.208 9.19187C116.559 9.07727 114.902 9.36975 113.545 9.78916C111.042 10.4691 109.04 12.6647 108.353 14.1626C108.33 13.4304 108.632 11.3705 109.834 10.3447C109.465 9.55405 109.192 8.68453 108.712 8.05754C107.742 7.04392 106.832 6.99392 105.345 7.00046L105.345 7.0004ZM102.853 25.2318C100.439 25.2395 98.1723 25.4954 96.2795 25.8742L95.1996 32.0987C96.1433 31.7434 97.2727 31.5236 98.48 31.3962C99.4049 31.2985 100.387 31.2557 101.393 31.2597C101.537 31.2603 101.681 31.2618 101.825 31.2643C102.983 31.2839 104.165 31.363 105.325 31.4896C107.643 31.7426 109.862 32.1842 111.591 32.7586C112.273 32.9852 112.9 33.2303 113.422 33.5071L114.196 27.4093C110.623 25.7947 106.565 25.2198 102.853 25.2317L102.853 25.2318ZM101.381 32.3935C100.451 32.3897 99.5561 32.4283 98.7376 32.5148C97.2408 32.6728 96.04 32.9941 95.2855 33.4398C99.9682 36.37 106.745 36.7125 112.967 34.8378C112.616 34.5239 111.91 34.1257 110.854 33.775C109.334 33.2697 107.238 32.8453 105.059 32.6074C103.833 32.4736 102.578 32.3986 101.381 32.3936L101.381 32.3935Z" fill="#CC3636"/>
<defs>
<filter id="filter0_b_47_57" x="45.4307" y="32.336" width="130.668" height="48.512" filterUnits="userSpaceOnUse" color-interpolation-filters="sRGB">
<feFlood flood-opacity="0" result="BackgroundImageFix"/>
<feGaussianBlur in="BackgroundImageFix" stdDeviation="2"/>
<feComposite in2="SourceAlpha" operator="in" result="effect1_backgroundBlur_47_57"/>
<feBlend mode="normal" in="SourceGraphic" in2="effect1_backgroundBlur_47_57" result="shape"/>
</filter>
</defs>
</svg>
