<svg width="282" height="66" viewBox="0 0 282 66" fill="none" xmlns="http://www.w3.org/2000/svg">
<line y1="32" x2="110.692" y2="32" stroke="#CC3636" stroke-width="2"/>
<line x1="164.72" y1="32" x2="282" y2="32" stroke="#CC3636" stroke-width="2"/>
<path d="M118.214 36.6492V43.4786C120.483 46.0368 123.344 48.0981 126.588 49.5126C129.832 50.9272 133.378 51.6595 136.969 51.6563C145.347 51.6563 152.732 47.7446 157.08 41.8006V32.2282C155.592 41.211 147.154 48.0938 136.969 48.0938C128.533 48.0938 121.296 43.3735 118.214 36.6492ZM153.496 18.4823V15.415C153.49 14.7385 153.611 14.0661 153.852 13.4271C149.336 9.37927 143.276 7.11724 136.969 7.12502C131.325 7.11732 125.856 8.9295 121.515 12.2461L121.525 12.3548L121.527 12.4029V17.2122C123.435 15.1633 125.804 13.5189 128.469 12.3925C131.135 11.2661 134.035 10.6844 136.969 10.6875C143.777 10.6875 149.803 13.762 153.496 18.4823Z" fill="#CC3636"/>
<path d="M152.469 29.3907C152.469 33.17 150.836 36.7946 147.929 39.4669C145.022 42.1393 141.08 43.6407 136.969 43.6407C132.858 43.6407 128.915 42.1393 126.009 39.4669C123.102 36.7946 121.469 33.17 121.469 29.3907C121.469 25.6113 123.102 21.9868 126.009 19.3144C128.915 16.642 132.858 15.1407 136.969 15.1407C141.08 15.1407 145.022 16.642 147.929 19.3144C150.836 21.9868 152.469 25.6113 152.469 29.3907ZM136.969 41.8594C138.75 41.8594 140.513 41.5369 142.159 40.9103C143.804 40.2837 145.299 39.3652 146.559 38.2074C147.818 37.0496 148.817 35.675 149.499 34.1623C150.18 32.6495 150.531 31.0281 150.531 29.3907C150.531 27.7533 150.18 26.1319 149.499 24.6191C148.817 23.1063 147.818 21.7318 146.559 20.5739C145.299 19.4161 143.804 18.4977 142.159 17.8711C140.513 17.2444 138.75 16.9219 136.969 16.9219C133.372 16.9219 129.922 18.2356 127.379 20.5739C124.835 22.9123 123.406 26.0838 123.406 29.3907C123.406 32.6976 124.835 35.8691 127.379 38.2074C129.922 40.5458 133.372 41.8594 136.969 41.8594ZM163.106 14.1432C163.106 12.5401 161.691 11.2397 159.948 11.2397C157.429 11.2397 155.414 13.11 155.433 15.4079V25.2938C155.433 27.5257 156.84 29.5243 159.017 30.4291V45.7782C159.017 46.7044 159.831 47.4525 160.839 47.4525H161.284C162.292 47.4525 163.106 46.7044 163.106 45.7782V14.1432ZM118.214 11.2397C117.864 11.2397 117.529 11.3674 117.282 11.5945C117.035 11.8217 116.896 12.1297 116.896 12.451V17.2426C116.896 17.5988 116.586 17.866 116.218 17.866C115.831 17.866 115.54 17.581 115.54 17.2426V12.5044C115.54 11.8454 114.978 11.2576 114.261 11.2397C113.506 11.2219 112.886 11.7741 112.886 12.451V17.2426C112.886 17.5988 112.576 17.866 112.207 17.866C111.82 17.866 111.529 17.581 111.529 17.2426V12.5044C111.529 11.8454 110.967 11.2576 110.251 11.2397C109.495 11.2219 108.875 11.7741 108.875 12.451V20.6091C108.875 22.2158 109.722 23.6497 111.024 24.5439C112.188 25.1477 112.188 27.9122 112.188 27.9122V45.7604C112.188 46.6866 113.002 47.4347 114.009 47.4347H114.455C115.463 47.4347 116.276 46.6866 116.276 45.7604V27.9122C116.276 27.9122 116.276 25.2564 117.441 24.5439C118.107 24.087 118.649 23.4934 119.022 22.8103C119.395 22.1272 119.589 21.3735 119.589 20.6091V12.451C119.57 12.1264 119.417 11.8208 119.161 11.5959C118.906 11.3711 118.567 11.2438 118.214 11.2397Z" fill="#CC3636"/>
</svg>
