<svg width="41" height="40" viewBox="0 0 41 40" fill="none" xmlns="http://www.w3.org/2000/svg">
<path d="M36.4843 12.385C36.3315 12.1635 36.1274 11.9824 35.8895 11.8573C35.6517 11.7322 35.3871 11.6668 35.1186 11.6667H12.4112L10.4938 7.05001C10.2424 6.44204 9.81674 5.92265 9.2707 5.55769C8.72467 5.19273 8.0829 4.99863 7.42676 5.00001H3.55054V8.33334H7.42676L15.3088 27.3083C15.435 27.6119 15.648 27.8713 15.9209 28.0537C16.1938 28.2361 16.5144 28.3334 16.8423 28.3333H30.1341C30.827 28.3333 31.4467 27.9017 31.6909 27.2533L36.6754 13.92C36.7696 13.6677 36.8014 13.3963 36.7681 13.1289C36.7348 12.8616 36.6374 12.6063 36.4843 12.385Z" fill="#CC3636"/>
<path d="M17.6731 35C19.0495 35 20.1653 33.8807 20.1653 32.5C20.1653 31.1193 19.0495 30 17.6731 30C16.2967 30 15.1809 31.1193 15.1809 32.5C15.1809 33.8807 16.2967 35 17.6731 35Z" fill="#CC3636"/>
<path d="M29.3032 35C30.6797 35 31.7955 33.8807 31.7955 32.5C31.7955 31.1193 30.6797 30 29.3032 30C27.9268 30 26.811 31.1193 26.811 32.5C26.811 33.8807 27.9268 35 29.3032 35Z" fill="#CC3636"/>
</svg>
