<svg width="64" height="56" viewBox="0 0 64 56" fill="none" xmlns="http://www.w3.org/2000/svg">
<g clip-path="url(#clip0_115_149)">
<path d="M32 0C34.9375 0 37.7708 0.328125 40.5 0.984375C43.2292 1.64062 45.7708 2.58854 48.125 3.82812C50.4792 5.06771 52.6354 6.52604 54.5938 8.20312C56.5521 9.88021 58.2292 11.7669 59.625 13.8633C61.0208 15.9596 62.0938 18.1927 62.8438 20.5625C63.5938 22.9323 63.9792 25.4115 64 28C64 30.5703 63.625 33.0495 62.875 35.4375C62.125 37.8255 61.0417 40.0495 59.625 42.1094C58.2083 44.1693 56.5417 46.056 54.625 47.7695C52.7083 49.4831 50.5521 50.9505 48.1562 52.1719C45.7604 53.3932 43.2083 54.332 40.5 54.9883C37.7917 55.6445 34.9583 55.9818 32 56C29.0625 56 26.2292 55.6719 23.5 55.0156C20.7708 54.3594 18.2292 53.4115 15.875 52.1719C13.5208 50.9323 11.3646 49.474 9.40625 47.7969C7.44792 46.1198 5.77083 44.2331 4.375 42.1367C2.97917 40.0404 1.90625 37.8073 1.15625 35.4375C0.40625 33.0677 0.0208333 30.5885 0 28C0 25.4297 0.375 22.9505 1.125 20.5625C1.875 18.1745 2.95833 15.9505 4.375 13.8906C5.79167 11.8307 7.45833 9.94401 9.375 8.23047C11.2917 6.51693 13.4479 5.04948 15.8438 3.82812C18.2396 2.60677 20.7917 1.66797 23.5 1.01172C26.2083 0.355469 29.0417 0.0182292 32 0ZM50.8438 18.7305L46.5938 15.0117L26 33.0312L17.4062 25.5117L13.1562 29.2305L26 40.4688L50.8438 18.7305Z" fill="#CC3636"/>
</g>
<defs>
<clipPath id="clip0_115_149">
<rect width="64" height="56" fill="white"/>
</clipPath>
</defs>
</svg>
